<svg id="Ebene_1" data-name="Ebene 1" xmlns="http://www.w3.org/2000/svg" viewBox="0 0 1640.07 794.27"><defs><style>.cls-1,.cls-2,.cls-3{fill:#1d1d1b;}.cls-2{font-size:160px;font-family:Montserrat-UltraLight, Montserrat;}.cls-3{font-size:180px;font-family:RockSalt-Regular, Rock Salt;}.cls-4{letter-spacing:-0.05em;}</style></defs><title>headerBanner</title><polygon class="cls-1" points="0 476.28 51.67 639.97 0 646.93 0 476.28"/><polygon class="cls-1" points="8.69 482.45 77.17 600.57 56.81 634.81 8.69 482.45"/><polygon class="cls-1" points="59.91 642.2 77.68 612.32 77.68 660.77 59.91 642.2"/><polygon class="cls-1" points="55.84 647.26 74.43 666.7 27.95 675.15 55.84 647.26"/><polygon class="cls-1" points="1.07 725.18 18.1 688.44 38.71 742.21 1.07 725.18"/><polygon class="cls-1" points="88.21 673.36 140.6 682.55 120.38 717.48 88.21 673.36"/><polygon class="cls-1" points="87.01 666.6 131.18 614.75 141.75 676.21 87.01 666.6"/><polygon class="cls-1" points="84.12 604.26 126.89 609.84 84.12 660.05 84.12 604.26"/><polygon class="cls-1" points="0 758.23 46.85 782.56 0 794.27 0 758.23"/><polygon class="cls-1" points="49.24 752.51 86.19 759.23 57.64 778.55 49.24 752.51"/><polygon class="cls-1" points="81.54 675.15 115.48 721.69 50.52 743.02 81.54 675.15"/><polygon class="cls-1" points="22.78 682.65 75.4 673.08 44.78 740.06 22.78 682.65"/><polygon class="cls-1" points="165.63 481.99 241.37 515.35 153.4 590.97 165.63 481.99"/><polygon class="cls-1" points="96.5 590.09 158.4 491.91 145.59 596.49 96.5 590.09"/><polygon class="cls-1" points="170.25 475.68 222.84 425.65 243.47 508.31 170.25 475.68"/><polygon class="cls-1" points="229.64 419.75 264.6 388.42 249.73 494.15 229.64 419.75"/><polygon class="cls-1" points="163.02 375.19 205.25 363.6 166.33 391.76 163.02 375.19"/><polygon class="cls-1" points="147.02 329.73 154.59 369.5 122.4 373.29 147.02 329.73"/><polygon class="cls-1" points="153.56 325.71 213.14 353.99 161.64 368.13 153.56 325.71"/><polygon class="cls-1" points="171.88 396.6 220.58 361.38 221.73 413.18 171.88 396.6"/><polygon class="cls-1" points="167.49 402.77 218.68 419.75 167.49 468.57 167.49 402.77"/><polygon class="cls-1" points="139.38 419.37 160.32 404.81 160.32 461.24 139.38 419.37"/><polygon class="cls-1" points="85.27 467.14 133.67 424 157.88 472.4 85.27 467.14"/><polygon class="cls-1" points="83.56 342.62 141.21 325.42 114.91 371.94 83.56 342.62"/><polygon class="cls-1" points="60.23 397.45 109.18 383.32 95.06 413.45 60.23 397.45"/><polygon class="cls-1" points="77.67 346.94 108.72 375.99 56.63 391.01 77.67 346.94"/><polygon class="cls-1" points="56.25 403.52 92.23 420.05 76.67 459.92 56.25 403.52"/><polygon class="cls-1" points="99.25 421.79 125.36 421.79 85.33 457.47 99.25 421.79"/><polygon class="cls-1" points="227.71 360.58 264.8 378.76 228.7 411.07 227.71 360.58"/><polygon class="cls-1" points="228.35 353.07 279.86 251.13 268.17 372.39 228.35 353.07"/><polygon class="cls-1" points="5.88 438.24 73.19 472.43 84.95 576.09 5.88 438.24"/><polygon class="cls-1" points="80.6 474 157.68 479.59 92.89 582.36 80.6 474"/><polygon class="cls-1" points="4.09 429.29 48.09 402.05 70.08 462.8 4.09 429.29"/><polygon class="cls-1" points="0.37 313.26 45.18 395.41 0.37 423.15 0.37 313.26"/><polygon class="cls-1" points="5.59 307.85 71.81 342.54 49.74 388.79 5.59 307.85"/><polygon class="cls-1" points="4.17 299 72.95 258.61 72.95 335.03 4.17 299"/><polygon class="cls-1" points="80.13 260.57 141.67 317.8 80.13 336.15 80.13 260.57"/><polygon class="cls-1" points="153.16 317.58 198.95 185.79 219.05 348.85 153.16 317.58"/><polygon class="cls-1" points="82.32 252.81 193.74 178.91 147.13 313.07 82.32 252.81"/><polygon class="cls-1" points="205.24 178.14 279.65 235.64 225.53 342.74 205.24 178.14"/><polygon class="cls-1" points="208.25 171.4 307.99 140.02 282.21 228.55 208.25 171.4"/><path class="cls-1" d="M320.73,276.59" transform="translate(-7.42 -142)"/><polygon class="cls-1" points="0.37 154.17 70.96 251.45 0.37 292.91 0.37 154.17"/><polygon class="cls-1" points="0.37 19.9 84.18 38.29 0.37 133.83 0.37 19.9"/><polygon class="cls-1" points="93.75 41.04 153.12 66.5 87.16 140.86 93.75 41.04"/><polygon class="cls-1" points="89.82 149.16 157.82 72.17 195.22 166.09 89.82 149.16"/><polygon class="cls-1" points="86.2 156.13 189.76 172.94 80.64 245.32 86.2 156.13"/><polygon class="cls-1" points="4.76 148.31 79.02 155.9 73.56 243.57 4.76 148.31"/><polygon class="cls-1" points="3.9 141.13 86.16 47.68 79.49 148.72 3.9 141.13"/><polygon class="cls-1" points="163.07 65.89 225.62 5.37 199.28 156.81 163.07 65.89"/><polygon class="cls-1" points="309.72 32.55 309.72 131.96 210.31 163.23 309.72 32.55"/><polygon class="cls-1" points="233.84 0 307.38 23.76 206.68 156.15 233.84 0"/><polygon class="cls-1" points="7.95 755.1 42.25 751.83 50.42 777.15 7.95 755.1"/><text class="cls-2" transform="translate(495.07 462.71)">poly</text><text class="cls-3" transform="translate(851.41 443.95)">Bea<tspan class="cls-4" x="449.12" y="0">s</tspan><tspan x="543.52" y="0">ts</tspan></text><text class="cls-3" transform="translate(826.74 488.95)">.</text></svg>